<svg width="40" height="40" viewBox="0 0 40 40" fill="none" xmlns="http://www.w3.org/2000/svg">
<path fill-rule="evenodd" clip-rule="evenodd" d="M16 2.3094C18.4752 0.880339 21.5248 0.880339 24 2.3094L33.3205 7.6906C35.7957 9.11966 37.3205 11.7607 37.3205 14.6188V25.3812C37.3205 28.2393 35.7957 30.8803 33.3205 32.3094L24 37.6906C21.5248 39.1197 18.4752 39.1197 16 37.6906L6.67949 32.3094C4.20428 30.8803 2.67949 28.2393 2.67949 25.3812V14.6188C2.67949 11.7607 4.20428 9.11966 6.67949 7.6906L16 2.3094Z" fill="url(#paint0_linear)"/>
<path fill-rule="evenodd" clip-rule="evenodd" d="M18.2654 18.5124C19.2966 17.9124 20.5681 17.9026 21.6084 18.4866L28.6216 22.4239C29.1947 22.7456 29.1947 23.5707 28.6216 23.8925L21.6083 27.8297C20.5681 28.4137 19.2966 28.4039 18.2654 27.804L11.5315 23.8861C10.9733 23.5613 10.9733 22.7551 11.5314 22.4303L18.2654 18.5124Z" fill="white"/>
<g opacity="0.900359" filter="url(#filter0_b)">
<path fill-rule="evenodd" clip-rule="evenodd" d="M18.2654 18.4167C19.2966 17.8168 20.5681 17.807 21.6084 18.391L28.6216 22.3282C29.1947 22.65 29.1947 23.4751 28.6216 23.7968L21.6083 27.7341C20.5681 28.3181 19.2966 28.3083 18.2654 27.7084L11.5315 23.7904C10.9733 23.4657 10.9733 22.6594 11.5314 22.3347L18.2654 18.4167Z" fill="url(#paint1_linear)"/>
</g>
<path fill-rule="evenodd" clip-rule="evenodd" d="M18.2654 15.023C19.2966 14.4231 20.5681 14.4133 21.6084 14.9973L28.6216 18.9346C29.1947 19.2563 29.1947 20.0814 28.6216 20.4032L21.6083 24.3404C20.5681 24.9244 19.2966 24.9146 18.2654 24.3147L11.5315 20.3967C10.9733 20.072 10.9733 19.2657 11.5314 18.941L18.2654 15.023Z" fill="white"/>
<g filter="url(#filter1_b)">
<path fill-rule="evenodd" clip-rule="evenodd" d="M18.2654 14.908C19.2966 14.3081 20.5681 14.2983 21.6084 14.8823L28.6216 18.8195C29.1947 19.1413 29.1947 19.9664 28.6216 20.2881L21.6083 24.2254C20.5681 24.8094 19.2966 24.7996 18.2654 24.1997L11.5315 20.2817C10.9733 19.957 10.9733 19.1507 11.5314 18.826L18.2654 14.908Z" fill="url(#paint2_linear)"/>
</g>
<path fill-rule="evenodd" clip-rule="evenodd" d="M18.2654 11.3993C19.2966 10.7994 20.5681 10.7896 21.6084 11.3736L28.6216 15.3108C29.1947 15.6326 29.1947 16.4577 28.6216 16.7794L21.6083 20.7167C20.5681 21.3007 19.2966 21.2909 18.2654 20.691L11.5315 16.773C10.9733 16.4483 10.9733 15.642 11.5314 15.3173L18.2654 11.3993Z" fill="white"/>
<defs>
<filter id="filter0_b" x="-16.07" y="-9.22304" width="72.3042" height="64.5712" filterUnits="userSpaceOnUse" color-interpolation-filters="sRGB">
<feFlood flood-opacity="0" result="BackgroundImageFix"/>
<feGaussianBlur in="BackgroundImage" stdDeviation="13.5914"/>
<feComposite in2="SourceAlpha" operator="in" result="effect1_backgroundBlur"/>
<feBlend mode="normal" in="SourceGraphic" in2="effect1_backgroundBlur" result="shape"/>
</filter>
<filter id="filter1_b" x="-16.07" y="-12.7317" width="72.3042" height="64.5711" filterUnits="userSpaceOnUse" color-interpolation-filters="sRGB">
<feFlood flood-opacity="0" result="BackgroundImageFix"/>
<feGaussianBlur in="BackgroundImage" stdDeviation="13.5914"/>
<feComposite in2="SourceAlpha" operator="in" result="effect1_backgroundBlur"/>
<feBlend mode="normal" in="SourceGraphic" in2="effect1_backgroundBlur" result="shape"/>
</filter>
<linearGradient id="paint0_linear" x1="22.2029" y1="-16.5631" x2="-10.9232" y2="19.0311" gradientUnits="userSpaceOnUse">
<stop stop-color="#32C5FF"/>
<stop offset="0.533966" stop-color="#B620E0"/>
<stop offset="1" stop-color="#FFAA12"/>
</linearGradient>
<linearGradient id="paint1_linear" x1="21.8114" y1="12.1722" x2="9.85525" y2="18.5838" gradientUnits="userSpaceOnUse">
<stop stop-color="white" stop-opacity="0.475466"/>
<stop offset="1" stop-color="white" stop-opacity="0.272734"/>
</linearGradient>
<linearGradient id="paint2_linear" x1="23.8299" y1="12.9328" x2="14.1322" y2="18.6039" gradientUnits="userSpaceOnUse">
<stop stop-color="white" stop-opacity="0.200771"/>
<stop offset="1" stop-color="white" stop-opacity="0.697855"/>
</linearGradient>
</defs>
</svg>
