<svg width="137" height="40" viewBox="0 0 137 40" fill="none" xmlns="http://www.w3.org/2000/svg">
<path fill-rule="evenodd" clip-rule="evenodd" d="M94.6204 11.2957C95.3401 11.2957 95.9556 11.0551 96.467 10.5741C96.9784 10.093 97.234 9.51537 97.234 8.84113C97.234 8.17446 96.9784 7.6006 96.467 7.11954C95.9556 6.63848 95.3363 6.39795 94.609 6.39795C93.8969 6.39795 93.2833 6.63848 92.7681 7.11954C92.253 7.6006 91.9954 8.17446 91.9954 8.84113C91.9954 9.51537 92.253 10.093 92.7681 10.5741C93.2833 11.0551 93.9007 11.2957 94.6204 11.2957ZM63.7273 30.2673C62.2803 30.9756 60.5947 31.3298 58.6704 31.3298C56.7386 31.3298 55.0492 30.9756 53.6023 30.2673C52.1553 29.5589 51.0303 28.5684 50.2273 27.2957C49.4242 26.0229 49.0227 24.5381 49.0227 22.8411V7.72749H53.9432V22.4207C53.9432 23.307 54.1382 24.0949 54.5284 24.7843C54.9185 25.4737 55.4697 26.0154 56.1818 26.4093C56.8939 26.8033 57.7235 27.0002 58.6704 27.0002C59.625 27.0002 60.4564 26.8033 61.1648 26.4093C61.8731 26.0154 62.4223 25.4737 62.8125 24.7843C63.2026 24.0949 63.3977 23.307 63.3977 22.4207V7.72749H68.3182V22.8411C68.3182 24.5381 67.9148 26.0229 67.1079 27.2957C66.3011 28.5684 65.1742 29.5589 63.7273 30.2673ZM77.1182 20.9093V31.0002H72.2773V13.5457H76.8909V16.6252H77.0954C77.4818 15.6101 78.1295 14.8051 79.0386 14.2104C79.9477 13.6158 81.05 13.3184 82.3454 13.3184C83.5576 13.3184 84.6144 13.5836 85.5159 14.1139C86.4174 14.6442 87.1182 15.3998 87.6182 16.3809C88.1182 17.362 88.3682 18.5305 88.3682 19.8866V31.0002H83.5273V20.7502C83.5348 19.682 83.2621 18.8468 82.7091 18.2445C82.1561 17.6423 81.3947 17.3411 80.425 17.3411C79.7735 17.3411 79.1996 17.4813 78.7034 17.7616C78.2072 18.0419 77.8208 18.4491 77.5443 18.9832C77.2678 19.5173 77.1257 20.1593 77.1182 20.9093ZM97.0181 13.5457V31.0002H92.1772V13.5457H97.0181ZM107.864 31.2389C108.492 31.2161 109.026 31.1536 109.466 31.0514C109.905 30.9491 110.246 30.8601 110.489 30.7843L109.727 27.182C109.606 27.2048 109.432 27.237 109.204 27.2786C108.977 27.3203 108.75 27.3411 108.523 27.3411C108.197 27.3411 107.911 27.2919 107.665 27.1934C107.418 27.0949 107.227 26.9226 107.091 26.6764C106.954 26.4301 106.886 26.0836 106.886 25.6366L106.886 17.1822L110.17 17.182V13.5457L106.886 13.5462L106.886 9.36386H102.045L102.045 13.5462L99.659 13.5457V17.182L102.045 17.1822L102.045 26.2729C102.038 27.3129 102.235 28.1901 102.635 28.9044L102.761 29.1139C103.246 29.8639 103.926 30.4169 104.801 30.7729C105.579 31.0895 106.472 31.2473 107.48 31.2466C107.606 31.2465 107.734 31.2439 107.864 31.2389ZM119.37 36.9718C118.522 37.3544 117.499 37.5457 116.302 37.5457C115.688 37.5457 115.115 37.4983 114.581 37.4036C114.046 37.3089 113.605 37.1896 113.257 37.0457L114.348 33.432C114.916 33.6063 115.429 33.701 115.887 33.7161C116.346 33.7313 116.743 33.6252 117.081 33.3979C117.418 33.1707 117.692 32.7843 117.904 32.2389L118.188 31.5002L111.927 13.5457H117.018L120.632 26.3639H120.814L124.461 13.5457L129.586 13.5684L122.802 32.8866C122.476 33.826 122.035 34.6461 121.478 35.3468C120.921 36.0476 120.219 36.5892 119.37 36.9718Z" fill="white"/>
<path d="M136.605 31V25.9844H131.589V31H136.605Z" fill="#6C5DD3"/>
<path fill-rule="evenodd" clip-rule="evenodd" d="M16.3189 2.3094C18.7941 0.880339 21.8437 0.880339 24.3189 2.3094L33.6394 7.6906C36.1146 9.11966 37.6394 11.7607 37.6394 14.6188V25.3812C37.6394 28.2393 36.1146 30.8803 33.6394 32.3094L24.3189 37.6906C21.8437 39.1197 18.7941 39.1197 16.3189 37.6906L6.9984 32.3094C4.52319 30.8803 2.9984 28.2393 2.9984 25.3812V14.6188C2.9984 11.7607 4.52319 9.11966 6.9984 7.6906L16.3189 2.3094Z" fill="url(#paint0_linear)"/>
<path fill-rule="evenodd" clip-rule="evenodd" d="M18.5843 18.5122C19.6154 17.9123 20.887 17.9025 21.9272 18.4865L28.9404 22.4238C29.5136 22.7455 29.5136 23.5706 28.9404 23.8924L21.9272 27.8296C20.887 28.4136 19.6154 28.4038 18.5843 27.8039L11.8503 23.8859C11.2921 23.5612 11.2921 22.7549 11.8503 22.4302L18.5843 18.5122Z" fill="white"/>
<g opacity="0.900359" filter="url(#filter0_b)">
<path fill-rule="evenodd" clip-rule="evenodd" d="M18.5843 18.417C19.6154 17.8171 20.887 17.8073 21.9272 18.3913L28.9404 22.3285C29.5136 22.6503 29.5136 23.4754 28.9404 23.7971L21.9272 27.7344C20.887 28.3184 19.6154 28.3086 18.5843 27.7087L11.8503 23.7907C11.2921 23.466 11.2921 22.6597 11.8503 22.335L18.5843 18.417Z" fill="url(#paint1_linear)"/>
</g>
<path fill-rule="evenodd" clip-rule="evenodd" d="M18.5843 15.023C19.6154 14.423 20.887 14.4133 21.9272 14.9973L28.9404 18.9345C29.5136 19.2563 29.5136 20.0813 28.9404 20.4031L21.9272 24.3403C20.887 24.9243 19.6154 24.9146 18.5843 24.3146L11.8503 20.3967C11.2921 20.0719 11.2921 19.2657 11.8503 18.9409L18.5843 15.023Z" fill="white"/>
<g filter="url(#filter1_b)">
<path fill-rule="evenodd" clip-rule="evenodd" d="M18.5843 14.9082C19.6154 14.3083 20.887 14.2985 21.9272 14.8825L28.9404 18.8198C29.5136 19.1415 29.5136 19.9666 28.9404 20.2884L21.9272 24.2256C20.887 24.8096 19.6154 24.7998 18.5843 24.1999L11.8503 20.2819C11.2921 19.9572 11.2921 19.1509 11.8503 18.8262L18.5843 14.9082Z" fill="url(#paint2_linear)"/>
</g>
<path fill-rule="evenodd" clip-rule="evenodd" d="M18.5843 11.3994C19.6154 10.7995 20.887 10.7897 21.9272 11.3737L28.9404 15.311C29.5136 15.6327 29.5136 16.4578 28.9404 16.7796L21.9272 20.7168C20.887 21.3008 19.6154 21.291 18.5843 20.6911L11.8503 16.7731C11.2921 16.4484 11.2921 15.6421 11.8503 15.3174L18.5843 11.3994Z" fill="white"/>
<defs>
<filter id="filter0_b" x="-16.1012" y="-13.4392" width="73.0045" height="73.0045" filterUnits="userSpaceOnUse" color-interpolation-filters="sRGB">
<feFlood flood-opacity="0" result="BackgroundImageFix"/>
<feGaussianBlur in="BackgroundImage" stdDeviation="13.5914"/>
<feComposite in2="SourceAlpha" operator="in" result="effect1_backgroundBlur"/>
<feBlend mode="normal" in="SourceGraphic" in2="effect1_backgroundBlur" result="shape"/>
</filter>
<filter id="filter1_b" x="-16.1012" y="-16.948" width="73.0045" height="73.0045" filterUnits="userSpaceOnUse" color-interpolation-filters="sRGB">
<feFlood flood-opacity="0" result="BackgroundImageFix"/>
<feGaussianBlur in="BackgroundImage" stdDeviation="13.5914"/>
<feComposite in2="SourceAlpha" operator="in" result="effect1_backgroundBlur"/>
<feBlend mode="normal" in="SourceGraphic" in2="effect1_backgroundBlur" result="shape"/>
</filter>
<linearGradient id="paint0_linear" x1="22.5218" y1="-16.5631" x2="-10.6043" y2="19.0311" gradientUnits="userSpaceOnUse">
<stop stop-color="#32C5FF"/>
<stop offset="0.533966" stop-color="#B620E0"/>
<stop offset="1" stop-color="#FFAA12"/>
</linearGradient>
<linearGradient id="paint1_linear" x1="22.1303" y1="12.1725" x2="10.1741" y2="18.5841" gradientUnits="userSpaceOnUse">
<stop stop-color="white" stop-opacity="0.475466"/>
<stop offset="1" stop-color="white" stop-opacity="0.272734"/>
</linearGradient>
<linearGradient id="paint2_linear" x1="24.1488" y1="12.933" x2="14.4511" y2="18.6041" gradientUnits="userSpaceOnUse">
<stop stop-color="white" stop-opacity="0.200771"/>
<stop offset="1" stop-color="white" stop-opacity="0.697855"/>
</linearGradient>
</defs>
</svg>
